<?xml version="1.0" standalone="no"?>
<!DOCTYPE svg PUBLIC "-//W3C//DTD SVG 20010904//EN"
 "http://www.w3.org/TR/2001/REC-SVG-20010904/DTD/svg10.dtd">
<svg version="1.0" xmlns="http://www.w3.org/2000/svg"
 width="1024.000000pt" height="1024.000000pt" viewBox="0 0 1024.000000 1024.000000"
 preserveAspectRatio="xMidYMid meet">

<g transform="translate(0.000000,1024.000000) scale(0.100000,-0.100000)"
fill="#000000" stroke="none">
<path d="M4765 9270 c-38 -5 -128 -16 -198 -25 -430 -53 -794 -164 -1212 -370
-283 -140 -485 -267 -718 -453 -365 -290 -695 -664 -926 -1047 -267 -444 -491
-1042 -561 -1500 -83 -550 -78 -1073 15 -1570 117 -623 392 -1215 800 -1725
106 -133 385 -443 411 -458 7 -4 41 -34 76 -67 507 -484 1279 -855 2033 -975
232 -37 368 -45 740 -44 269 1 346 4 483 23 483 65 815 159 1229 349 514 237
977 599 1368 1071 148 178 173 211 290 382 104 149 306 530 388 730 197 477
299 1060 284 1619 -19 679 -151 1226 -441 1825 -205 424 -428 736 -766 1076
-346 346 -639 558 -1078 778 -383 192 -716 291 -1242 372 -93 14 -878 21 -975
9z m314 -337 c0 -4 -27 -30 -60 -58 -88 -73 -345 -337 -419 -430 -214 -269
-377 -600 -455 -926 l-28 -116 -116 72 c-339 211 -630 304 -1031 331 -134 8
-142 4 -169 -93 -35 -131 -60 -261 -77 -408 -20 -176 -15 -599 10 -775 18
-126 71 -354 110 -468 14 -39 22 -72 19 -72 -2 0 -48 9 -101 19 -264 53 -546
43 -825 -29 -129 -33 -291 -91 -384 -139 -35 -17 -63 -27 -63 -22 0 5 7 46 16
92 178 950 716 1799 1492 2357 452 325 1039 559 1582 632 47 6 96 13 110 16
14 2 88 7 165 10 77 4 141 7 142 8 8 7 83 5 82 -1z m546 -13 c39 -4 98 -11
132 -14 472 -49 1047 -266 1490 -563 474 -317 818 -678 1118 -1173 172 -284
286 -539 388 -870 54 -174 125 -480 111 -480 -3 0 -56 22 -117 49 -216 93
-388 141 -603 166 -116 13 -163 14 -265 5 -169 -14 -207 -19 -302 -40 -45 -10
-83 -17 -84 -16 -1 0 14 52 33 114 88 292 118 503 119 837 0 350 -12 464 -80
728 -19 75 -35 140 -35 143 0 11 -268 -5 -365 -22 -301 -52 -579 -160 -820
-318 -55 -36 -103 -62 -106 -58 -3 4 -16 52 -28 107 -76 340 -256 698 -489
975 -80 95 -260 276 -382 383 l-65 57 140 -1 c77 -1 172 -5 210 -9z m-319
-482 c323 -330 541 -690 634 -1052 43 -166 61 -321 63 -536 l2 -189 30 51
c136 230 347 416 635 561 149 75 339 143 492 176 l86 19 6 -32 c45 -249 56
-636 23 -841 -29 -188 -105 -462 -174 -635 -72 -179 -192 -392 -295 -522 l-29
-38 183 76 c101 42 220 90 264 109 234 95 488 145 743 145 213 0 376 -34 543
-112 l86 -41 -65 -126 c-220 -427 -526 -787 -862 -1014 -191 -129 -517 -262
-743 -303 l-98 -18 -15 -53 c-17 -58 -14 -73 14 -73 57 0 283 -96 379 -162 79
-54 273 -256 341 -356 146 -216 271 -562 271 -751 0 -39 -4 -58 -12 -58 -7 0
-76 -6 -153 -13 -133 -12 -478 -9 -580 5 -339 47 -670 186 -915 383 -106 85
-251 250 -295 334 -21 41 -22 41 -113 32 l-61 -7 16 -30 c23 -46 71 -192 89
-272 22 -98 29 -305 14 -407 -30 -207 -134 -440 -287 -641 -60 -80 -234 -259
-296 -304 l-47 -35 -53 40 c-75 57 -237 223 -305 314 -170 228 -254 432 -282
687 -21 189 21 427 105 602 l22 47 -45 6 c-94 13 -105 10 -131 -37 -169 -297
-586 -577 -1008 -676 -203 -47 -507 -60 -852 -35 l-104 7 6 88 c14 188 109
472 223 663 44 75 174 234 243 299 148 139 240 194 434 258 l125 41 -13 50
c-8 27 -15 52 -17 54 -2 1 -58 15 -123 29 -425 91 -737 258 -1031 550 -172
172 -337 382 -464 595 -57 95 -140 261 -140 280 0 12 147 76 240 104 157 47
256 59 460 53 285 -7 452 -47 750 -177 131 -58 319 -130 337 -130 2 0 -5 12
-17 28 -115 150 -239 374 -303 549 -71 193 -148 488 -162 623 -4 36 -9 73 -11
83 -2 11 -6 80 -10 155 -6 120 10 357 30 467 2 11 7 43 11 71 4 28 10 56 14
62 5 8 40 3 124 -18 165 -42 283 -83 424 -151 293 -138 526 -338 665 -569 l33
-56 -4 116 c-7 257 27 495 106 724 116 339 313 645 603 937 l115 116 25 -18
c14 -10 62 -55 106 -101z m-3796 -3163 c65 -153 125 -265 208 -385 239 -349
513 -600 830 -761 64 -33 167 -76 256 -109 l28 -10 -98 -98 c-106 -104 -227
-257 -294 -371 -118 -203 -204 -456 -225 -663 l-7 -68 -32 43 c-58 76 -172
250 -233 357 -369 641 -539 1326 -508 2047 5 112 11 171 16 158 5 -11 31 -74
59 -140z m7409 -150 c1 -402 -20 -601 -100 -920 -113 -448 -326 -909 -593
-1283 l-81 -113 -17 118 c-58 384 -267 771 -553 1021 -29 26 -54 50 -54 53 -1
3 45 23 102 43 215 80 383 178 562 329 287 241 531 585 681 959 31 76 40 92
46 75 3 -12 6 -139 7 -282z m-2560 -2619 c205 -103 413 -165 656 -195 198 -25
520 -22 655 5 32 7 25 -1 -69 -80 -123 -103 -351 -264 -501 -354 -369 -222
-888 -407 -1305 -466 -186 -26 -476 -48 -474 -36 0 3 53 48 117 102 173 143
216 183 314 293 202 227 340 500 378 750 7 44 14 86 16 92 2 8 24 -1 61 -26
32 -21 100 -59 152 -85z m-2131 24 c13 -94 55 -239 98 -337 102 -229 330 -504
592 -714 l124 -99 -71 0 c-109 0 -347 27 -531 60 -510 91 -1036 319 -1494 648
-118 85 -288 226 -277 230 6 2 36 -2 68 -7 177 -33 549 -19 793 29 200 40 464
146 620 249 25 16 50 30 55 30 6 1 16 -40 23 -89z"/>
<path d="M5104 7276 c-112 -28 -199 -108 -246 -223 -19 -49 -23 -77 -23 -173
0 -99 4 -125 26 -186 25 -68 80 -158 134 -219 24 -27 26 -36 23 -90 -8 -128
-77 -212 -246 -298 -124 -64 -174 -108 -211 -186 -25 -55 -26 -63 -32 -326 -8
-329 -20 -382 -115 -526 -76 -115 -202 -214 -340 -268 l-52 -20 -23 33 c-31
44 -105 105 -149 123 -19 8 -57 15 -85 16 -75 0 -355 -15 -355 -20 0 -3 21
-46 47 -96 59 -117 144 -204 229 -238 57 -23 70 -24 309 -24 226 1 259 3 340
23 137 35 222 81 302 166 122 128 174 264 176 463 2 111 2 112 20 90 35 -43
78 -146 87 -208 13 -90 -8 -199 -56 -289 -25 -49 -71 -108 -145 -186 -76 -81
-118 -135 -145 -188 l-38 -74 -58 29 c-137 69 -306 110 -463 112 -126 2 -187
-14 -248 -64 -55 -45 -80 -100 -85 -189 -13 -219 174 -445 461 -560 145 -58
224 -72 436 -77 216 -6 330 5 488 44 l102 25 78 -21 c143 -38 259 -51 453 -51
210 0 321 14 452 59 141 48 241 105 332 192 89 84 135 153 173 257 59 161 -11
329 -155 372 -144 43 -395 7 -591 -86 -52 -24 -95 -43 -95 -42 -1 2 -18 38
-39 80 -29 59 -64 104 -141 186 -113 119 -143 164 -176 262 -45 130 -26 266
52 385 l33 50 6 -130 c8 -147 22 -203 81 -318 54 -103 125 -173 230 -226 146
-73 208 -84 478 -85 223 -1 239 0 309 23 106 35 190 115 256 243 l47 93 -113
7 c-260 16 -281 15 -353 -21 -43 -21 -81 -49 -108 -82 -24 -27 -49 -49 -56
-49 -8 0 -55 21 -105 47 -166 86 -294 234 -353 408 -25 76 -27 93 -33 345 -7
264 -7 265 -35 327 -38 83 -90 129 -212 188 -163 80 -244 184 -244 314 0 43 6
54 55 117 93 116 135 230 135 367 0 261 -204 450 -426 393z m1625 -2452 c-36
-39 -95 -66 -137 -62 -36 3 -35 4 57 50 52 26 97 45 100 43 2 -3 -6 -17 -20
-31z m-3001 -20 c84 -41 93 -58 25 -48 -54 7 -96 30 -133 70 l-25 27 30 -7
c17 -4 63 -23 103 -42z"/>
</g>
</svg>
